General
Complete name                            : C:UsersComputerDesktopTurn Up the music[A4] .MP4
Format                                   : MPEG-4
Format profile                           : Base Media / Version 2
Codec ID                                 : mp42
File size                                : 111 MiB
Duration                                 : 4mn 17s
Overall bit rate mode                    : Variable
Overall bit rate                         : 3 629 Kbps
Encoded date                             : UTC 2012-02-16 02:01:54
Tagged date                              : UTC 2012-02-16 02:01:54
gsst                                     : 0
gstd                                     : 257601
gssd                                     : B4A7DA9A2HH1333960572682428
gshh                                     :

Video
ID                                       : 1
Format                                   : AVC
Format/Info                              : Advanced Video Codec
Format profile                           : High@L4.0
Format settings, CABAC                   : Yes
Format settings, ReFrames                : 1 frame
Format settings, GOP                     : M=1, N=24
Codec ID                                 : avc1
Codec ID/Info                            : Advanced Video Coding
Duration                                 : 4mn 17s
Bit rate                                 : 3 474 Kbps
Maximum bit rate                         : 7 873 Kbps
Width                                    : 1 920 pixels
Height                                   : 1 080 pixels
Display aspect ratio                     : 16:9
Frame rate mode                          : Constant
Frame rate                               : 23.976 fps
Color space                              : YUV
Chroma subsampling                       : 4:2:0
Bit depth                                : 8 bits
Scan type                                : Progressive
Bits/(Pixel*Frame)                       : 0.070
Stream size                              : 107 MiB (96%)
Tagged date                              : UTC 2012-02-16 02:01:55

Audio
ID                                       : 2
Format                                   : AAC
Format/Info                              : Advanced Audio Codec
Format profile                           : LC
Codec ID                                 : 40
Duration                                 : 4mn 17s
Bit rate mode                            : Variable
Bit rate                                 : 152 Kbps
Maximum bit rate                         : 226 Kbps
Channel(s)                               : 2 channels
Channel positions                        : Front: L R
Sampling rate                            : 44.1 KHz
Compression mode                         : Lossy
Stream size                              : 4.67 MiB (4%)
Title                                    : IsoMedia File Produced by Google, 5-11-2011
Encoded date                             : UTC 2012-02-16 02:01:55
Tagged date                              : UTC 2012-02-16 02:01:55
